<svg version="1.1" id="Layer_1" xmlns="http://www.w3.org/2000/svg" xmlns:xlink="http://www.w3.org/1999/xlink" x="0px" y="0px"
	 width="100%" viewBox="0 0 1024 1024" enable-background="new 0 0 1024 1024" xml:space="preserve">
<path fill="#131313" opacity="1.000000" stroke="none" 
	d="
M578.000000,1025.000000 
	C385.333344,1025.000000 193.166672,1025.000000 1.000000,1025.000000 
	C1.000000,683.666687 1.000000,342.333344 1.000000,1.000000 
	C342.333344,1.000000 683.666687,1.000000 1025.000000,1.000000 
	C1025.000000,342.333344 1025.000000,683.666687 1025.000000,1025.000000 
	C876.166687,1025.000000 727.333313,1025.000000 578.000000,1025.000000 
M959.189270,605.814819 
	C962.135010,586.944519 965.588989,568.136475 967.908386,549.189514 
	C971.465454,520.132385 970.601685,490.948120 967.578918,461.916229 
	C964.091003,428.417786 956.940796,395.606689 946.351562,363.598907 
	C921.046021,287.108398 878.539001,221.767487 818.192993,168.404190 
	C765.653564,121.944221 705.528015,88.802811 638.129395,69.088783 
	C606.237671,59.760490 573.658325,54.741272 540.476990,52.854519 
	C500.554535,50.584454 460.875732,52.029842 421.745178,60.382069 
	C353.869995,74.869675 292.039398,102.743141 236.679047,144.953201 
	C176.100159,191.142197 129.711548,248.535965 98.422401,317.983795 
	C74.381157,371.344513 60.965881,427.441132 57.989628,485.819305 
	C56.250137,519.938782 57.482765,554.097412 63.636990,587.842651 
	C69.441933,619.672607 78.215736,650.707764 90.494751,680.667908 
	C121.758224,756.949097 169.928268,820.583679 234.928101,871.190552 
	C307.581268,927.756165 390.368866,958.704407 481.908905,966.544128 
	C514.903320,969.369934 547.750854,967.493958 580.441956,962.270142 
	C616.565857,956.497742 651.616638,946.943726 685.352234,932.762695 
	C727.258484,915.147034 765.458740,891.381104 800.640259,862.687195 
	C821.088013,846.010193 840.006409,827.723450 857.212463,807.726746 
	C882.630432,778.186218 904.504883,746.234680 921.879822,711.281555 
	C938.475708,677.895508 950.833252,643.009949 959.189270,605.814819 
z"/>
<path fill="#FCFCFC" opacity="1.000000" stroke="none" 
	d="
M959.080505,606.221252 
	C950.833252,643.009949 938.475708,677.895508 921.879822,711.281555 
	C904.504883,746.234680 882.630432,778.186218 857.212463,807.726746 
	C840.006409,827.723450 821.088013,846.010193 800.640259,862.687195 
	C765.458740,891.381104 727.258484,915.147034 685.352234,932.762695 
	C651.616638,946.943726 616.565857,956.497742 580.441956,962.270142 
	C547.750854,967.493958 514.903320,969.369934 481.908905,966.544128 
	C390.368866,958.704407 307.581268,927.756165 234.928101,871.190552 
	C169.928268,820.583679 121.758224,756.949097 90.494751,680.667908 
	C78.215736,650.707764 69.441933,619.672607 63.636990,587.842651 
	C57.482765,554.097412 56.250137,519.938782 57.989628,485.819305 
	C60.965881,427.441132 74.381157,371.344513 98.422401,317.983795 
	C129.711548,248.535965 176.100159,191.142197 236.679047,144.953201 
	C292.039398,102.743141 353.869995,74.869675 421.745178,60.382069 
	C460.875732,52.029842 500.554535,50.584454 540.476990,52.854519 
	C573.658325,54.741272 606.237671,59.760490 638.129395,69.088783 
	C705.528015,88.802811 765.653564,121.944221 818.192993,168.404190 
	C878.539001,221.767487 921.046021,287.108398 946.351562,363.598907 
	C956.940796,395.606689 964.091003,428.417786 967.578918,461.916229 
	C970.601685,490.948120 971.465454,520.132385 967.908386,549.189514 
	C965.588989,568.136475 962.135010,586.944519 959.080505,606.221252 
M532.181702,115.276314 
	C500.660583,114.454117 469.306549,115.664963 438.281952,122.038994 
	C384.027893,133.185547 334.476868,155.023605 289.288544,186.936279 
	C288.343140,187.603928 287.258423,188.074249 285.449524,189.071838 
	C361.823303,297.670990 437.408051,405.148193 513.420654,513.233765 
	C589.482483,404.560089 666.596558,297.953156 740.607727,188.757568 
	C677.847900,144.626877 609.547180,118.512001 532.181702,115.276314 
M598.500122,705.359802 
	C548.180176,705.313416 497.860260,705.266663 447.540314,705.220764 
	C398.553375,705.176025 349.566406,705.133850 300.579468,705.084229 
	C297.562103,705.081177 294.716705,704.497437 294.737457,709.396179 
	C294.914581,751.217468 294.831055,793.039978 295.025116,834.861145 
	C295.033844,836.733337 296.507172,839.270752 298.083710,840.337280 
	C302.758728,843.499695 307.801331,846.126709 312.745514,848.881836 
	C367.233765,879.243530 425.344543,898.038269 487.624146,903.305176 
	C524.892700,906.456970 561.770935,903.276733 598.159058,894.984131 
	C644.639954,884.391541 687.919434,865.906189 728.493958,840.946472 
	C731.432190,839.138977 732.504333,837.047546 732.490356,833.688477 
	C732.320496,792.867737 732.166138,752.046204 732.284851,711.225708 
	C732.299561,706.162659 730.555786,705.236694 725.966125,705.254150 
	C683.811279,705.414734 641.655640,705.355164 598.500122,705.359802 
M301.823303,322.669281 
	C299.908051,319.866821 297.992798,317.064362 296.077545,314.261871 
	C294.840668,316.109955 294.666199,317.659332 294.666901,319.208649 
	C294.713226,423.690887 294.772766,528.173096 294.834961,632.655334 
	C294.839264,639.861328 294.852692,639.872131 302.139893,639.873047 
	C443.949982,639.890747 585.760071,639.881409 727.570007,640.032593 
	C732.039856,640.037354 732.293030,638.194458 732.289307,634.723999 
	C732.177734,529.907959 732.135986,425.091858 732.067993,320.275757 
	C732.067139,318.903442 731.869751,317.531250 731.699097,315.314545 
	C660.403564,419.656891 586.805603,521.132141 512.459473,623.775146 
	C440.591827,523.761597 370.623718,424.069824 301.823303,322.669281 
M795.226074,257.500244 
	C795.226074,432.510315 795.226074,607.520386 795.226074,783.838928 
	C879.142700,696.848877 913.554626,593.048645 904.407593,474.725037 
	C897.273743,382.443146 861.205566,302.247650 797.343628,235.172989 
	C796.637939,235.362198 795.932251,235.551407 795.226562,235.740616 
	C795.226562,242.660538 795.226562,249.580444 795.226074,257.500244 
M127.026802,434.712311 
	C125.004295,452.557495 121.970238,470.357117 121.164536,488.257080 
	C119.345230,528.675415 123.011765,568.673523 132.898239,608.053589 
	C148.837555,671.543213 179.620178,726.633667 225.465393,773.326294 
	C227.000275,774.889526 228.709473,776.281616 230.539673,777.936340 
	C230.539673,597.209412 230.539673,417.292053 230.539673,237.374664 
	C229.898422,237.185623 229.257172,236.996582 228.615921,236.807541 
	C174.435440,291.866150 141.064240,357.776337 127.026802,434.712311 
z"/>
<path fill="#131313" opacity="1.000000" stroke="none" 
	d="
M532.652710,115.284729 
	C609.547180,118.512001 677.847900,144.626877 740.607727,188.757568 
	C666.596558,297.953156 589.482483,404.560089 513.420654,513.233765 
	C437.408051,405.148193 361.823303,297.670990 285.449524,189.071838 
	C287.258423,188.074249 288.343140,187.603928 289.288544,186.936279 
	C334.476868,155.023605 384.027893,133.185547 438.281952,122.038994 
	C469.306549,115.664963 500.660583,114.454117 532.652710,115.284729 
z"/>
<path fill="#131313" opacity="1.000000" stroke="none" 
	d="
M599.000122,705.359802 
	C641.655640,705.355164 683.811279,705.414734 725.966125,705.254150 
	C730.555786,705.236694 732.299561,706.162659 732.284851,711.225708 
	C732.166138,752.046204 732.320496,792.867737 732.490356,833.688477 
	C732.504333,837.047546 731.432190,839.138977 728.493958,840.946472 
	C687.919434,865.906189 644.639954,884.391541 598.159058,894.984131 
	C561.770935,903.276733 524.892700,906.456970 487.624146,903.305176 
	C425.344543,898.038269 367.233765,879.243530 312.745514,848.881836 
	C307.801331,846.126709 302.758728,843.499695 298.083710,840.337280 
	C296.507172,839.270752 295.033844,836.733337 295.025116,834.861145 
	C294.831055,793.039978 294.914581,751.217468 294.737457,709.396179 
	C294.716705,704.497437 297.562103,705.081177 300.579468,705.084229 
	C349.566406,705.133850 398.553375,705.176025 447.540314,705.220764 
	C497.860260,705.266663 548.180176,705.313416 599.000122,705.359802 
z"/>
<path fill="#141414" opacity="1.000000" stroke="none" 
	d="
M302.028625,322.968384 
	C370.623718,424.069824 440.591827,523.761597 512.459473,623.775146 
	C586.805603,521.132141 660.403564,419.656891 731.699097,315.314545 
	C731.869751,317.531250 732.067139,318.903442 732.067993,320.275757 
	C732.135986,425.091858 732.177734,529.907959 732.289307,634.723999 
	C732.293030,638.194458 732.039856,640.037354 727.570007,640.032593 
	C585.760071,639.881409 443.949982,639.890747 302.139893,639.873047 
	C294.852692,639.872131 294.839264,639.861328 294.834961,632.655334 
	C294.772766,528.173096 294.713226,423.690887 294.666901,319.208649 
	C294.666199,317.659332 294.840668,316.109955 296.077545,314.261871 
	C297.992798,317.064362 299.908051,319.866821 302.028625,322.968384 
z"/>
<path fill="#141414" opacity="1.000000" stroke="none" 
	d="
M795.226318,257.000305 
	C795.226562,249.580444 795.226562,242.660538 795.226562,235.740616 
	C795.932251,235.551407 796.637939,235.362198 797.343628,235.172989 
	C861.205566,302.247650 897.273743,382.443146 904.407593,474.725037 
	C913.554626,593.048645 879.142700,696.848877 795.226074,783.838928 
	C795.226074,607.520386 795.226074,432.510315 795.226318,257.000305 
z"/>
<path fill="#131313" opacity="1.000000" stroke="none" 
	d="
M127.129654,434.294128 
	C141.064240,357.776337 174.435440,291.866150 228.615921,236.807541 
	C229.257172,236.996582 229.898422,237.185623 230.539673,237.374664 
	C230.539673,417.292053 230.539673,597.209412 230.539673,777.936340 
	C228.709473,776.281616 227.000275,774.889526 225.465393,773.326294 
	C179.620178,726.633667 148.837555,671.543213 132.898239,608.053589 
	C123.011765,568.673523 119.345230,528.675415 121.164536,488.257080 
	C121.970238,470.357117 125.004295,452.557495 127.129654,434.294128 
z"/>
</svg>