<svg version="1.1" id="Layer_1" xmlns="http://www.w3.org/2000/svg" xmlns:xlink="http://www.w3.org/1999/xlink" x="0px" y="0px"
	 width="100%" viewBox="0 0 4600 1394" enable-background="new 0 0 4600 1394" xml:space="preserve">
<path fill="#FFF" opacity="1.000000" stroke="none" 
	d="
M3951.436523,750.588562 
	C3955.118652,756.987671 3958.749268,762.592834 3961.658447,768.550354 
	C3964.524658,774.420044 3962.559814,777.226135 3955.991699,777.560303 
	C3953.333984,777.695435 3950.661621,777.533142 3947.996094,777.533386 
	C3897.678223,777.538574 3847.359863,777.441101 3797.043213,777.701904 
	C3791.264893,777.731812 3787.948486,776.060181 3785.108643,771.045654 
	C3773.697754,750.894470 3761.859375,730.985962 3750.254883,710.943848 
	C3733.952881,682.788879 3717.705078,654.602417 3701.459229,626.415222 
	C3682.390381,593.330200 3663.365723,560.219849 3644.288086,527.140015 
	C3634.180420,509.613739 3624.000000,492.129028 3613.597900,474.186188 
	C3572.572754,474.186188 3531.423584,474.186188 3489.230469,474.186188 
	C3489.230469,477.551575 3489.229980,480.770447 3489.230469,483.989319 
	C3489.241943,575.271301 3489.253662,666.553284 3489.263672,757.835266 
	C3489.263916,759.167969 3489.239746,760.500610 3489.234619,761.833313 
	C3489.177979,777.024902 3488.595215,777.611206 3473.692139,777.606079 
	C3430.039307,777.591125 3386.386475,777.584839 3342.733643,777.565125 
	C3334.073242,777.561218 3333.011719,776.586792 3332.514893,768.003479 
	C3332.341797,765.013245 3332.371094,762.009094 3332.371094,759.011292 
	C3332.365234,523.749817 3332.357666,288.488373 3332.422119,53.226917 
	C3332.423584,48.398991 3333.268555,43.571289 3333.766846,38.240929 
	C3337.840576,38.019913 3340.767090,37.723232 3343.693848,37.722282 
	C3448.328369,37.688385 3552.963379,37.510738 3657.596924,37.849770 
	C3674.009033,37.902946 3690.395020,41.037842 3706.825928,41.452538 
	C3725.437988,41.922287 3743.432373,45.648052 3761.356201,49.780071 
	C3800.720947,58.854870 3836.442871,75.286880 3865.047363,104.642822 
	C3890.139893,130.394379 3904.942139,161.711670 3911.298584,196.800034 
	C3919.935547,244.478378 3919.191162,291.964142 3904.076172,338.434998 
	C3891.113037,378.289886 3867.497314,410.158539 3831.984863,433.266052 
	C3817.090820,442.957489 3801.083984,449.800934 3784.231689,456.604858 
	C3793.139160,472.297394 3801.894287,487.775726 3810.699951,503.225342 
	C3843.730225,561.178894 3876.798096,619.110779 3909.806396,677.076599 
	C3923.619629,701.333923 3937.318359,725.656189 3951.436523,750.588562 
M3672.998047,329.679871 
	C3689.795166,329.405731 3706.703857,331.170959 3723.152100,325.717712 
	C3740.301025,320.031952 3755.117920,311.521973 3763.637695,294.714691 
	C3771.714111,278.782043 3774.546387,262.106049 3772.596191,244.175003 
	C3769.885742,219.258682 3758.288818,201.434799 3734.971436,191.472443 
	C3717.591797,184.047012 3699.080811,182.093979 3680.693848,181.902557 
	C3620.417725,181.275024 3560.130615,181.667236 3499.847900,181.667480 
	C3496.601562,181.667496 3493.355225,181.667480 3489.812256,181.667480 
	C3489.812256,231.306351 3489.812256,280.043640 3489.812256,329.679871 
	C3550.596436,329.679871 3610.797852,329.679871 3672.998047,329.679871 
z"/>
<path fill="#FFF" opacity="1.000000" stroke="none" 
	d="
M741.325562,599.148438 
	C723.170349,628.918701 701.811584,655.139221 676.922974,678.495422 
	C641.711853,711.538452 602.256958,737.651489 556.492432,754.026733 
	C536.296570,761.253052 515.643921,766.475830 494.810211,771.123657 
	C487.471436,772.760864 479.790833,772.873718 472.263611,773.656555 
	C459.506500,774.983398 446.772247,776.865112 433.980896,777.421814 
	C423.787292,777.865479 413.522186,776.696899 403.290527,776.207825 
	C401.313477,776.113403 399.339203,775.647217 397.372467,775.697510 
	C370.724579,776.379211 344.864594,771.162476 319.235718,764.821228 
	C264.192963,751.202209 215.608780,724.876587 173.534576,687.212097 
	C142.513351,659.442139 115.836830,627.862427 95.793785,590.883423 
	C79.189415,560.248718 67.419769,528.086365 60.249798,494.058899 
	C55.135086,469.785309 53.017769,445.344391 51.799236,420.558685 
	C50.966560,403.621674 51.693302,386.771484 52.873501,370.184235 
	C55.752235,329.724854 65.314133,290.535034 81.408409,253.031693 
	C95.108932,221.106369 113.194801,191.897858 135.954498,165.876205 
	C186.298569,108.316795 247.541077,67.766891 322.585388,49.671726 
	C338.178558,45.911797 353.808136,42.429085 369.947601,41.570557 
	C388.389801,40.589539 406.795044,38.073753 425.225677,37.975857 
	C440.661926,37.893852 456.106323,40.395863 471.556213,41.640850 
	C514.376404,45.091408 554.689575,57.570763 592.892761,76.641098 
	C622.761414,91.551003 649.512451,111.284149 674.139954,133.805298 
	C702.801758,160.015640 726.654419,190.074158 745.508301,224.056122 
	C763.275635,256.079803 775.649841,290.047760 782.351074,326.082703 
	C785.365479,342.292084 787.096252,358.608704 788.746826,375.017670 
	C790.388550,391.338837 790.903076,407.607971 790.079346,423.785583 
	C787.719604,470.130402 780.345032,515.591858 761.183105,558.372681 
	C755.105286,571.942017 748.238037,585.157837 741.325562,599.148438 
M222.275238,500.636749 
	C225.221695,506.918915 228.047928,513.260864 231.135101,519.473083 
	C245.920776,549.225708 267.373993,573.539551 293.686646,593.367371 
	C307.377747,603.684265 322.549805,611.789490 338.755096,618.086121 
	C356.001007,624.787292 373.905090,628.346313 391.915375,631.435669 
	C401.962280,633.158997 412.368195,633.742249 422.563293,633.396118 
	C434.038147,633.006470 445.435699,630.737000 456.906677,629.745300 
	C474.457062,628.228027 491.100067,623.219849 507.169739,616.493713 
	C543.722107,601.194153 572.436523,576.191650 594.912659,543.805664 
	C620.781982,506.530426 633.009521,464.797913 634.584717,419.804901 
	C635.264587,400.385712 634.757263,380.955933 631.359558,361.697388 
	C627.735962,341.158081 621.980469,321.287354 613.006226,302.459076 
	C602.270630,279.935394 588.479675,259.392029 570.969543,241.568649 
	C553.109802,223.389420 532.340820,209.489410 508.849274,199.294235 
	C489.234497,190.781525 468.818481,185.472366 447.783752,183.991852 
	C434.121796,183.030228 420.320099,181.882156 406.358002,183.231827 
	C394.219086,184.405289 382.115753,185.208191 370.100250,187.576187 
	C327.936432,195.885712 293.008392,216.915604 264.150513,248.183151 
	C242.101486,272.073334 225.695236,299.597504 216.571259,330.890839 
	C212.089996,346.260590 209.132828,362.144714 206.535034,377.968262 
	C204.888107,387.999878 204.425140,398.374969 204.782837,408.548492 
	C205.221680,421.029968 207.270126,433.445984 208.263809,445.918884 
	C209.742889,464.484772 215.017059,482.009674 222.275238,500.636749 
z"/>
<path fill="#FFF" opacity="1.000000" stroke="none" 
	d="
M3179.649414,633.672119 
	C3182.936035,633.681946 3185.275391,633.586243 3187.600586,633.724854 
	C3191.602783,633.963501 3193.565918,636.245544 3193.633301,640.201477 
	C3193.667236,642.200684 3193.645508,644.200867 3193.645508,646.200623 
	C3193.645752,685.529480 3193.650391,724.858398 3193.635254,764.187256 
	C3193.634277,766.847656 3193.743408,769.548462 3193.337402,772.158264 
	C3192.825684,775.447632 3190.810303,777.550110 3187.250732,777.599915 
	C3184.252441,777.641907 3181.252441,777.531433 3178.253174,777.531372 
	C3005.606445,777.527222 2832.959473,777.527527 2660.312744,777.527405 
	C2657.071777,777.527405 2653.830566,777.527405 2650.147949,777.527405 
	C2650.147949,531.271667 2650.147949,286.092407 2650.147949,40.397495 
	C2651.246582,40.176037 2652.459229,39.730175 2653.677002,39.715981 
	C2676.616455,39.448566 2699.556641,39.254341 2722.496338,39.000015 
	C2756.767578,38.620079 2791.038086,37.920341 2825.309570,37.861843 
	C2909.270508,37.718517 2993.231934,37.885998 3077.193115,37.883408 
	C3112.519775,37.882320 3147.846680,37.740578 3183.173340,37.720856 
	C3194.066162,37.714771 3194.314941,37.989975 3194.322510,48.977772 
	C3194.351074,89.973106 3194.333740,130.968475 3194.333740,171.963837 
	C3194.333740,174.266922 3194.333984,176.570007 3194.333984,178.556046 
	C3190.086670,182.819733 3185.216064,181.623657 3180.727539,181.625656 
	C3066.407227,181.676453 2952.086670,181.665695 2837.766357,181.665710 
	C2828.434082,181.665710 2819.101562,181.638077 2809.769531,181.686203 
	C2807.538086,181.697708 2805.307617,181.961914 2802.728760,182.132950 
	C2802.728760,231.290146 2802.728760,279.821564 2802.728760,329.681641 
	C2806.499023,329.681641 2810.027100,329.681641 2813.555176,329.681641 
	C2902.878418,329.681427 2992.201660,329.678223 3081.524902,329.684082 
	C3096.181885,329.685028 3096.308838,329.816528 3096.312988,344.909210 
	C3096.323242,382.904907 3096.351318,420.900665 3096.269775,458.896210 
	C3096.260010,463.440430 3095.615234,467.983276 3095.207520,473.268707 
	C2997.370605,473.268707 2900.494385,473.268707 2802.976318,473.268707 
	C2802.976318,526.894531 2802.976318,579.685242 2802.976318,633.672058 
	C2928.307373,633.672058 3053.501465,633.672058 3179.649414,633.672119 
z"/>
<path fill="#FFF" opacity="1.000000" stroke="none" 
	d="
M1845.979492,164.170044 
	C1834.051758,134.485626 1822.364136,105.530502 1810.647583,76.587105 
	C1806.911011,67.356529 1803.035767,58.181709 1799.336060,48.936543 
	C1796.001221,40.603230 1797.749634,37.742188 1806.524048,37.729862 
	C1855.186646,37.661488 1903.849976,37.819164 1952.511353,37.575058 
	C1959.281860,37.541096 1961.865845,41.006058 1963.928711,46.382992 
	C1971.306030,65.612419 1978.843140,84.780571 1986.291626,103.982780 
	C2006.658203,156.487274 2027.043091,208.984772 2047.360229,261.508392 
	C2070.442871,321.181152 2093.367676,380.915070 2116.536621,440.554138 
	C2132.502441,481.651764 2148.767334,522.633240 2165.711670,565.735901 
	C2236.079834,389.051575 2304.519775,213.395950 2374.241455,37.707306 
	C2378.161377,37.707306 2381.454346,37.707302 2384.747314,37.707306 
	C2431.410156,37.707378 2478.072998,37.698532 2524.735840,37.713356 
	C2537.561035,37.717430 2538.926025,39.685688 2534.211182,51.531723 
	C2509.575684,113.426910 2484.936523,175.320740 2460.250244,237.195724 
	C2439.237061,289.863586 2418.198242,342.521393 2397.096191,395.153656 
	C2379.690674,438.565887 2362.061523,481.888519 2344.745117,525.335999 
	C2330.303467,561.571106 2316.273193,597.970215 2301.876709,634.223389 
	C2284.430908,678.154663 2266.813721,722.017944 2249.196289,765.880737 
	C2247.606445,769.839294 2245.471436,773.579041 2243.536133,777.529724 
	C2239.099854,777.529724 2235.119629,777.529724 2231.139404,777.529724 
	C2188.809570,777.529968 2146.479736,777.523865 2104.149902,777.534363 
	C2092.072021,777.537354 2091.997559,777.589294 2087.632812,766.725769 
	C2073.624756,731.860291 2059.733398,696.947876 2045.691895,662.095825 
	C2023.985352,608.218567 2002.127563,554.402161 1980.459473,500.509460 
	C1966.985229,466.996307 1953.812500,433.362061 1940.379028,399.832367 
	C1922.094360,354.194366 1903.653931,308.618774 1885.349487,262.988647 
	C1872.243408,230.317383 1859.251343,197.600418 1845.979492,164.170044 
z"/>
<path fill="#FFF" opacity="1.000000" stroke="none" 
	d="
M891.815918,164.004044 
	C891.708557,125.822342 891.723511,88.636734 891.752075,51.451126 
	C891.753845,49.121777 891.646423,46.762325 891.967590,44.469822 
	C892.539307,40.389908 894.807556,37.844440 899.179688,37.722588 
	C901.177917,37.666897 903.178833,37.705597 905.178528,37.705582 
	C947.839050,37.705246 990.499634,37.701218 1033.160156,37.708065 
	C1047.266968,37.710331 1047.663208,38.097099 1047.663696,52.357800 
	C1047.670044,209.335266 1047.667725,366.312744 1047.667725,523.290222 
	C1047.667725,556.285522 1047.667725,589.280762 1047.667725,622.276062 
	C1047.667725,625.595276 1047.667725,628.914551 1047.667725,633.670227 
	C1051.565308,633.670227 1055.066040,633.670227 1058.566895,633.670227 
	C1179.216187,633.670227 1299.865601,633.670288 1420.514893,633.670349 
	C1422.847900,633.670349 1425.181396,633.640503 1427.513794,633.677429 
	C1436.921997,633.826416 1437.635498,634.451416 1437.646362,644.086243 
	C1437.692139,684.747070 1437.698975,725.407959 1437.642700,766.068665 
	C1437.628296,776.493103 1436.454956,777.535706 1426.262451,777.535583 
	C1252.287964,777.533813 1078.313477,777.533691 904.339050,777.534729 
	C902.339417,777.534729 900.336914,777.490173 898.340698,777.578064 
	C894.105835,777.764526 892.312195,775.323608 891.909485,771.548645 
	C891.699036,769.575134 891.823486,767.564270 891.823425,765.570251 
	C891.819580,568.376282 891.817688,371.182343 891.821960,173.988388 
	C891.822021,170.992310 891.899841,167.996216 891.815918,164.004044 
z"/>
<path fill="#FFF" opacity="1.000000" stroke="none" 
	d="
M145.251740,864.776550 
	C210.209793,938.676147 274.690186,1012.050049 339.921417,1086.278320 
	C345.420715,1080.209595 350.719788,1074.483521 355.885376,1068.639648 
	C374.369080,1047.728271 392.873505,1026.834717 411.245911,1005.825684 
	C432.452515,981.575745 453.419525,957.115845 474.687103,932.919800 
	C501.903198,901.956238 529.360962,871.205017 556.576660,840.241028 
	C559.477234,836.940918 562.447205,835.488892 566.848083,835.587708 
	C578.409485,835.847290 589.980469,835.675415 601.819458,835.675415 
	C601.819458,1009.986938 601.819458,1183.399536 601.819458,1357.654053 
	C598.397400,1357.654053 595.477234,1357.654541 592.557068,1357.654053 
	C562.233704,1357.649170 531.910278,1357.643799 501.586914,1357.639648 
	C500.587250,1357.639526 499.586212,1357.689941 498.588165,1357.652832 
	C491.343781,1357.383911 490.649567,1356.873413 490.594452,1349.483276 
	C490.440582,1328.839233 490.436676,1308.193970 490.424194,1287.549194 
	C490.381836,1217.598389 490.361389,1147.647583 490.332733,1077.696777 
	C490.331573,1074.857300 490.332581,1072.017944 490.332581,1067.008301 
	C480.346802,1078.066528 471.973541,1087.293213 463.650635,1096.564941 
	C443.011871,1119.556396 422.399597,1142.571655 401.770294,1165.571411 
	C383.604401,1185.824829 365.452026,1206.090332 347.246704,1226.308228 
	C341.168427,1233.058350 339.469696,1233.259277 333.063873,1226.362549 
	C319.709595,1211.984375 306.591064,1197.384399 293.523102,1182.743896 
	C275.839417,1162.932495 258.330688,1142.964722 240.677628,1123.125854 
	C227.197571,1107.976562 213.623032,1092.911377 200.059067,1077.836914 
	C197.266434,1074.733276 194.334595,1071.754883 190.101654,1067.273193 
	C190.101654,1164.699829 190.101654,1260.225952 190.101654,1355.428101 
	C182.316864,1358.089355 100.248627,1359.040894 78.647972,1356.900146 
	C78.336052,1353.626221 77.710892,1350.120850 77.709885,1346.615234 
	C77.661987,1180.003174 77.664383,1013.391174 77.695518,846.779114 
	C77.696129,843.511719 78.105766,840.244446 78.407211,835.742859 
	C91.720329,835.742859 104.580231,835.534851 117.420090,835.948792 
	C119.544540,836.017334 121.896736,838.518005 123.603622,840.387695 
	C130.772186,848.240051 137.735565,856.279663 145.251740,864.776550 
z"/>
<path fill="#FFF" opacity="1.000000" stroke="none" 
	d="
M1622.602905,1108.699341 
	C1608.347046,1117.045898 1594.643921,1124.938354 1579.937866,1133.408325 
	C1621.376099,1206.861572 1664.055786,1280.614990 1706.917725,1356.775757 
	C1700.870728,1357.176392 1697.382568,1357.603516 1693.893921,1357.608398 
	C1658.901733,1357.658447 1623.905762,1357.373657 1588.920166,1357.850952 
	C1581.412354,1357.953369 1577.498169,1355.173706 1574.068604,1349.101440 
	C1560.846558,1325.690674 1547.277222,1302.476074 1533.869263,1279.170166 
	C1514.012573,1244.655029 1494.207764,1210.110229 1474.325806,1175.609741 
	C1468.703491,1165.853760 1462.889282,1156.208252 1456.908691,1146.081543 
	C1428.334839,1146.081543 1399.476685,1146.081543 1369.406738,1146.081543 
	C1369.406738,1216.449341 1369.406738,1286.535767 1369.406738,1357.121338 
	C1332.009888,1357.121338 1295.820190,1357.121338 1259.790161,1357.121338 
	C1259.371338,1356.774902 1259.089233,1356.585815 1258.864868,1356.343384 
	C1258.648926,1356.109985 1258.374023,1355.839600 1258.329712,1355.553711 
	C1258.077271,1353.922852 1257.699829,1352.282593 1257.699951,1350.645508 
	C1257.715576,1180.351440 1257.759521,1010.057434 1257.840942,839.763367 
	C1257.841431,838.833740 1258.391724,837.904358 1258.892944,836.317505 
	C1261.301392,836.111633 1263.844482,835.705078 1266.387695,835.704224 
	C1349.369263,835.675232 1432.365601,834.772827 1515.325806,836.104492 
	C1552.471436,836.700745 1588.314331,845.735901 1619.494995,867.947876 
	C1643.845825,885.294434 1658.627686,909.131653 1666.116943,937.631775 
	C1671.030273,956.329407 1673.217651,975.566345 1672.154175,994.834229 
	C1670.516357,1024.509155 1665.389038,1053.378052 1648.750244,1079.082275 
	C1641.601807,1090.125488 1632.322021,1099.085083 1622.602905,1108.699341 
M1369.650024,1024.901733 
	C1369.717285,1030.385986 1369.784424,1035.870239 1369.855713,1041.677979 
	C1374.211426,1041.677979 1377.181641,1041.677979 1380.151733,1041.677979 
	C1417.791504,1041.678345 1455.432251,1041.826538 1493.070435,1041.586304 
	C1503.947388,1041.516968 1514.926270,1041.057739 1525.658691,1039.446777 
	C1535.740723,1037.933350 1545.643677,1034.849243 1553.309204,1027.288696 
	C1568.898560,1011.913391 1570.952026,993.139282 1566.594727,972.961487 
	C1565.194458,966.477600 1562.227539,960.735291 1557.426514,955.674927 
	C1546.656616,944.323486 1532.974854,939.918640 1518.230469,939.782227 
	C1469.947632,939.335571 1421.657837,939.646729 1373.370728,939.686890 
	C1372.441162,939.687683 1371.511841,939.938782 1369.650024,940.207947 
	C1369.650024,967.838257 1369.650024,995.380249 1369.650024,1024.901733 
z"/>
<path fill="#FFF" opacity="1.000000" stroke="none" 
	d="
M2458.996826,1357.636353 
	C2453.966064,1357.903931 2453.110352,1354.701416 2452.592773,1351.852173 
	C2452.064209,1348.941650 2452.336182,1345.877563 2452.335938,1342.880615 
	C2452.328857,1178.596069 2452.320801,1014.311462 2452.376221,850.026917 
	C2452.377930,845.528625 2453.072998,841.030640 2453.513428,835.700623 
	C2467.266846,835.700623 2479.881348,835.464539 2492.472900,835.898438 
	C2495.011475,835.985840 2497.920654,838.157227 2499.887939,840.134766 
	C2570.126953,910.741028 2640.244385,981.468689 2710.451172,1052.107056 
	C2734.863037,1076.668945 2759.489014,1101.017944 2783.965820,1125.515503 
	C2791.024170,1132.579712 2797.880615,1139.845215 2804.884033,1146.964844 
	C2806.439453,1148.546143 2808.225098,1149.901245 2811.449219,1152.701904 
	C2811.449219,1046.281494 2811.449219,941.616638 2811.449219,836.314941 
	C2848.460693,836.314941 2884.301758,836.314941 2921.488037,836.314941 
	C2921.754395,839.484680 2922.280029,842.945435 2922.296875,846.408630 
	C2922.382324,864.069641 2922.336426,881.731262 2922.336426,899.392700 
	C2922.336426,1047.348755 2922.336426,1195.304932 2922.336426,1343.260986 
	C2922.336426,1347.524536 2922.336426,1351.788086 2922.336426,1357.181763 
	C2917.738037,1357.367920 2914.218262,1357.638916 2910.699463,1357.628784 
	C2899.709717,1357.597046 2888.720215,1357.458984 2877.730469,1357.361938 
	C2869.865234,1349.729126 2861.900391,1342.196045 2854.150635,1334.447998 
	C2785.595215,1265.908691 2717.073242,1197.335693 2648.551514,1128.762695 
	C2622.650879,1102.842651 2596.777588,1076.895386 2570.886719,1050.965576 
	C2569.765625,1049.842773 2568.593750,1048.770874 2565.857178,1046.160156 
	C2565.777588,1051.292603 2565.677490,1054.739746 2565.677002,1058.186890 
	C2565.668701,1153.491943 2565.671387,1248.796997 2565.668701,1344.102051 
	C2565.668213,1357.646851 2565.660400,1357.640259 2551.878174,1357.638794 
	C2521.220703,1357.635742 2490.563232,1357.640015 2458.996826,1357.636353 
z"/>
<path fill="#FFF" opacity="1.000000" stroke="none" 
	d="
M3130.335449,1031.570312 
	C3130.335449,1035.134399 3130.335449,1037.746826 3130.335449,1041.662598 
	C3199.397705,1041.662598 3267.803467,1041.662598 3337.002197,1041.662598 
	C3337.237305,1045.806274 3337.539551,1048.694336 3337.543213,1051.582520 
	C3337.578613,1079.244263 3337.573242,1106.905884 3337.558594,1134.567627 
	C3337.552979,1144.914795 3336.830811,1145.650513 3325.977783,1145.654907 
	C3264.655518,1145.679321 3203.333008,1145.668335 3142.010742,1145.669434 
	C3138.419434,1145.669434 3134.827881,1145.669434 3130.801514,1145.669434 
	C3130.801514,1182.393066 3130.801514,1218.272705 3130.801514,1255.352539 
	C3134.233398,1255.478760 3137.744141,1255.719727 3141.254883,1255.720581 
	C3224.906494,1255.741089 3308.558350,1255.735962 3392.209961,1255.736572 
	C3394.875244,1255.736572 3397.569336,1255.500854 3400.198730,1255.810913 
	C3404.312500,1256.296143 3406.914551,1258.532959 3406.949219,1262.995239 
	C3406.982910,1267.327393 3407.000732,1271.659912 3407.001709,1275.992188 
	C3407.006592,1298.988037 3407.046387,1321.984131 3406.963135,1344.979736 
	C3406.948975,1348.892212 3406.395752,1352.802979 3406.057373,1357.156006 
	C3277.076172,1357.156006 3148.852539,1357.156006 3019.774902,1357.156006 
	C3019.189209,1354.835938 3018.383545,1352.401978 3018.005371,1349.903442 
	C3017.709717,1347.948364 3017.942383,1345.913086 3017.942383,1343.913452 
	C3017.942383,1179.276245 3017.933838,1014.638977 3017.985107,850.001709 
	C3017.986572,845.482788 3018.626709,840.964050 3018.994873,836.105957 
	C3148.770020,836.105957 3277.312988,836.105957 3407.059814,836.105957 
	C3407.227051,840.213257 3407.516113,844.082214 3407.520996,847.951477 
	C3407.553711,873.898438 3407.541016,899.845337 3407.510742,925.792297 
	C3407.497803,937.097961 3406.946289,937.660095 3395.623291,937.661926 
	C3311.304932,937.675476 3226.986816,937.669250 3142.668457,937.669312 
	C3139.016602,937.669312 3135.364990,937.669373 3130.335449,937.669373 
	C3130.335449,968.931030 3130.335449,999.774841 3130.335449,1031.570312 
z"/>
<path fill="#FFF" opacity="1.000000" stroke="none" 
	d="
M845.869629,905.751465 
	C855.314514,881.998535 864.489685,858.968384 873.631104,836.022827 
	C911.089661,836.022827 947.672424,836.022827 984.820007,836.022827 
	C996.420227,865.019104 1007.963562,893.921692 1019.545044,922.808960 
	C1031.160156,951.779724 1042.852051,980.719666 1054.438477,1009.701904 
	C1066.095093,1038.859985 1077.645142,1068.060669 1089.275269,1097.229248 
	C1100.748169,1126.003418 1112.308105,1154.742920 1123.746216,1183.530884 
	C1135.123169,1212.164673 1146.318115,1240.871094 1157.736084,1269.488525 
	C1169.148193,1298.090942 1181.590088,1326.310059 1191.809937,1356.925171 
	C1151.696899,1356.925171 1113.873047,1356.925171 1074.328003,1356.925171 
	C1064.345459,1331.891357 1053.987915,1305.917114 1043.653931,1280.001953 
	C967.470154,1280.001953 891.884949,1280.001953 815.740723,1280.001953 
	C805.562134,1305.829346 795.421387,1331.560669 785.145569,1357.634766 
	C771.584778,1357.634766 758.275818,1357.634033 744.966858,1357.634766 
	C722.639648,1357.635986 700.312500,1357.638428 677.985291,1357.639526 
	C675.985840,1357.639648 673.976318,1357.763062 671.989014,1357.606567 
	C667.097717,1357.221191 666.174377,1355.966919 667.905579,1351.430054 
	C673.674927,1336.311279 679.499084,1321.212280 685.453857,1306.165649 
	C697.757935,1275.076050 710.114502,1244.006836 722.536865,1212.964355 
	C730.867371,1192.146973 739.414124,1171.416138 747.747864,1150.600220 
	C764.577942,1108.561890 781.308472,1066.483643 798.119690,1024.437744 
	C809.673950,995.539856 821.283630,966.664124 832.891663,937.787720 
	C837.093201,927.336060 841.361938,916.911377 845.869629,905.751465 
M881.864990,1114.572632 
	C874.861328,1131.887695 867.857727,1149.202759 860.503601,1167.384277 
	C908.500183,1167.384277 954.887390,1167.384277 1002.545776,1167.384277 
	C979.070374,1107.554199 955.921021,1048.555054 932.014709,987.626526 
	C914.835327,1030.952026 898.553223,1072.014771 881.864990,1114.572632 
z"/>
<path fill="#FFF" opacity="1.000000" stroke="none" 
	d="
M3660.000000,835.694519 
	C3744.877930,835.694519 3828.756104,835.694519 3913.677246,835.694519 
	C3913.677246,849.600220 3913.811279,862.483276 3913.541748,875.357910 
	C3913.498291,877.426270 3911.826904,879.565491 3910.616943,881.488770 
	C3891.156738,912.421692 3871.555908,943.266235 3852.175049,974.248474 
	C3822.609131,1021.512146 3793.289307,1068.930054 3763.674316,1116.162720 
	C3739.507812,1154.705444 3715.054443,1193.067993 3690.747070,1231.522583 
	C3685.983643,1239.058350 3681.305908,1246.648438 3675.638672,1255.737183 
	C3680.023926,1255.737183 3683.152832,1255.737183 3686.281982,1255.737183 
	C3757.260498,1255.736938 3828.239258,1255.736694 3899.217773,1255.736450 
	C3901.550293,1255.736450 3903.903320,1255.537964 3906.211670,1255.774048 
	C3911.776611,1256.343262 3913.940918,1258.412231 3913.958740,1263.998535 
	C3914.051270,1292.987427 3914.001221,1321.976929 3913.912354,1350.965820 
	C3913.906494,1352.852295 3913.161133,1354.736572 3912.662842,1357.076660 
	C3772.458008,1357.076660 3632.693848,1357.076660 3492.068604,1357.076660 
	C3492.068604,1344.712280 3491.171875,1332.731567 3492.468018,1320.992920 
	C3493.065186,1315.583862 3497.799805,1310.553833 3500.918945,1305.513184 
	C3524.530762,1267.354736 3548.159668,1229.206787 3571.875000,1191.112549 
	C3603.464111,1140.370117 3635.133057,1089.677368 3666.773438,1038.966797 
	C3686.103027,1007.987549 3705.448242,977.018005 3724.770996,946.034546 
	C3726.133789,943.849365 3727.370117,941.585327 3729.647217,937.669128 
	C3724.833008,937.669128 3721.370850,937.669128 3717.908691,937.669128 
	C3648.929443,937.669128 3579.950195,937.669189 3510.970947,937.668701 
	C3508.305176,937.668640 3505.638428,937.705261 3502.973633,937.652466 
	C3492.310547,937.441101 3491.767090,936.928955 3491.744629,926.145874 
	C3491.688965,899.498535 3491.687500,872.851074 3491.665039,846.203674 
	C3491.662598,843.268433 3491.664795,840.333191 3491.664795,835.936768 
	C3520.364990,835.436584 3548.200684,835.767883 3576.026367,835.707642 
	C3603.684326,835.647766 3631.342041,835.694519 3660.000000,835.694519 
z"/>
<path fill="#FFF" opacity="1.000000" stroke="none" 
	d="
M1549.708008,431.999573 
	C1549.733398,300.470184 1549.733398,169.940674 1549.733398,38.718937 
	C1553.046997,38.308556 1555.567749,37.727268 1558.089233,37.724030 
	C1603.405151,37.665771 1648.720947,37.652054 1694.036865,37.695801 
	C1702.915161,37.704372 1703.489136,38.401409 1703.648071,47.448143 
	C1703.700806,50.446041 1703.653809,53.445679 1703.653809,56.444523 
	C1703.653931,292.020325 1703.654053,527.596130 1703.654297,763.171936 
	C1703.654297,777.568359 1703.654663,777.540833 1689.565796,777.535889 
	C1647.582031,777.521240 1605.598145,777.530029 1563.614380,777.530518 
	C1561.615112,777.530579 1559.608887,777.650146 1557.618042,777.522888 
	C1551.410400,777.125977 1550.040771,775.813843 1549.724609,769.798401 
	C1549.567383,766.807861 1549.688599,763.802490 1549.688477,760.803833 
	C1549.686035,651.535706 1549.684326,542.267578 1549.708008,431.999573 
z"/>
<path fill="#FFF" opacity="1.000000" stroke="none" 
	d="
M1949.999756,1357.633423 
	C1931.717651,1357.633423 1914.435547,1357.633423 1896.126465,1357.633423 
	C1895.514038,1353.559570 1894.542847,1350.110840 1894.542480,1346.662231 
	C1894.529785,1221.020996 1894.608154,1095.379761 1894.672241,969.738464 
	C1894.677612,959.293030 1894.672729,948.847595 1894.672729,937.669006 
	C1890.157349,937.669006 1886.903931,937.669067 1883.650635,937.669006 
	C1834.331543,937.668884 1785.012451,937.684265 1735.693359,937.657349 
	C1723.909668,937.650940 1722.507935,936.250488 1722.486328,924.572571 
	C1722.438232,898.668274 1722.398804,872.763611 1722.495605,846.859680 
	C1722.508667,843.351562 1723.324707,839.846497 1723.803467,836.067993 
	C1875.546631,836.067993 2026.411133,836.067993 2178.326660,836.067993 
	C2178.782959,839.720398 2179.576416,843.182983 2179.590332,846.648682 
	C2179.695557,872.973999 2179.677002,899.299988 2179.634033,925.625671 
	C2179.615723,936.911194 2178.925049,937.641052 2167.801270,937.649780 
	C2117.815674,937.688843 2067.830078,937.668213 2017.844482,937.669067 
	C2014.279297,937.669067 2010.714111,937.669006 2006.374756,937.669006 
	C2006.374756,1077.870483 2006.374756,1217.040283 2006.374756,1357.633423 
	C1987.408203,1357.633423 1969.204102,1357.633423 1949.999756,1357.633423 
z"/>
<path fill="#FFF" opacity="1.000000" stroke="none" 
	d="
M2245.701904,1025.999756 
	C2245.701904,961.796021 2245.701904,898.592224 2245.701904,834.440186 
	C2249.868652,834.181824 2253.071533,833.815369 2256.274658,833.810791 
	C2285.589111,833.768921 2314.903809,833.812866 2344.218262,833.781067 
	C2355.900635,833.768372 2357.388672,835.146301 2357.405518,846.742126 
	C2357.474609,893.852234 2357.591797,940.962402 2357.572510,988.072510 
	C2357.523682,1106.836670 2357.421387,1225.600952 2357.277100,1344.365112 
	C2357.271973,1348.557495 2356.595947,1352.749268 2356.219482,1357.092285 
	C2318.996582,1357.092285 2282.836670,1357.092285 2245.701904,1357.092285 
	C2245.701904,1246.685181 2245.701904,1136.842529 2245.701904,1025.999756 
z"/>
<path fill="#FFF" opacity="1.000000" stroke="none" 
	d="
M4150.712891,975.330505 
	C4133.512695,945.693970 4116.737305,916.661804 4100.203613,888.046997 
	C4085.107178,888.046997 4070.866211,888.046997 4055.886230,888.046997 
	C4055.886230,922.576111 4055.886230,956.748901 4055.886230,991.626953 
	C4038.019043,991.626953 4020.870850,991.626953 4003.020508,991.626953 
	C4003.020508,906.834106 4003.020508,821.765015 4003.020508,736.102722 
	C4006.037109,735.951416 4008.939941,735.681458 4011.842529,735.679138 
	C4048.166260,735.650269 4084.489990,735.592285 4120.813477,735.694458 
	C4134.831543,735.733887 4148.640625,737.578003 4161.881836,742.398376 
	C4183.367188,750.219604 4197.394043,764.616333 4202.772949,787.429810 
	C4206.930664,805.064087 4206.220703,822.388367 4201.249512,839.465698 
	C4196.607910,855.409241 4186.822266,867.729126 4171.769043,875.409668 
	C4167.937500,877.364624 4164.021484,879.153564 4159.390137,881.381653 
	C4180.273926,918.034607 4201.062988,954.521851 4222.396973,991.965393 
	C4200.897949,991.965393 4180.995117,991.965393 4160.352051,991.965393 
	C4157.386230,986.805481 4154.262207,981.370178 4150.712891,975.330505 
M4122.475586,837.672424 
	C4127.054199,837.187561 4131.757324,837.208679 4136.188477,836.121704 
	C4148.772461,833.034302 4155.673340,823.816772 4155.671875,810.886414 
	C4155.670410,798.412476 4149.072266,789.906433 4136.390137,786.669128 
	C4132.910645,785.780945 4129.157715,785.716553 4125.528809,785.701721 
	C4104.931641,785.617615 4084.334229,785.645386 4063.737061,785.687683 
	C4061.203125,785.692871 4058.669678,786.011658 4056.318848,786.172607 
	C4056.318848,803.588135 4056.318848,820.329407 4056.318848,837.672363 
	C4078.175537,837.672363 4099.381836,837.672363 4122.475586,837.672424 
z"/>
<path fill="#FFF" opacity="1.000000" stroke="none" 
	d="
M4241.222168,1206.825195 
	C4234.731934,1267.462036 4183.306641,1313.371582 4128.383789,1317.875488 
	C4103.041992,1319.953735 4077.627197,1319.335205 4054.337158,1307.328613 
	C4009.455566,1284.191284 3984.073242,1248.041382 3981.543213,1196.694580 
	C3980.431152,1174.119141 3982.970947,1152.208374 3992.916992,1131.951660 
	C4011.998291,1093.089478 4042.847168,1068.072266 4085.776855,1060.881226 
	C4123.712402,1054.526855 4159.910645,1060.477295 4191.307129,1084.758057 
	C4222.460449,1108.850586 4239.874023,1140.426147 4241.620117,1180.079346 
	C4241.999023,1188.686646 4241.545898,1197.330444 4241.222168,1206.825195 
M4140.219238,1263.706787 
	C4146.219238,1260.207764 4152.932617,1257.533813 4158.097168,1253.068726 
	C4181.807129,1232.569824 4190.693359,1206.546997 4186.452148,1175.474365 
	C4181.717285,1140.783447 4152.624023,1108.996704 4112.532227,1109.174561 
	C4085.973389,1109.292358 4064.684326,1118.689209 4049.570068,1140.694458 
	C4031.317383,1167.268921 4029.529053,1195.821167 4042.370117,1224.768188 
	C4052.167236,1246.854126 4068.974121,1261.778442 4093.502441,1266.660156 
	C4108.811523,1269.707153 4123.871582,1269.204224 4140.219238,1263.706787 
z"/>
<path fill="#FFF" opacity="1.000000" stroke="none" 
	d="
M4207.684082,315.828522 
	C4207.684082,320.776611 4207.684082,324.745697 4207.684082,328.600006 
	C4200.503418,330.731415 4166.778320,331.159363 4154.538086,329.262817 
	C4154.538086,295.205109 4154.538086,261.025391 4154.538086,226.249832 
	C4115.419434,226.249832 4077.007324,226.249832 4037.862549,226.249832 
	C4037.862549,260.607849 4037.862549,294.772888 4037.862549,329.637695 
	C4020.015137,329.637695 4002.870850,329.637695 3985.028809,329.637695 
	C3985.028809,244.863052 3985.028809,159.813293 3985.028809,74.207870 
	C4002.262207,74.207870 4019.410645,74.207870 4037.557129,74.207870 
	C4037.557129,107.781670 4037.557129,141.243607 4037.557129,175.171204 
	C4076.702148,175.171204 4114.857910,175.171204 4154.071289,175.171204 
	C4154.071289,141.626236 4154.071289,108.196938 4154.071289,74.218231 
	C4172.265137,74.218231 4189.413086,74.218231 4207.684082,74.218231 
	C4207.684082,154.507843 4207.684082,234.678696 4207.684082,315.828522 
z"/>
<path fill="#FFF" opacity="1.000000" stroke="none" 
	d="
M4042.970215,607.683533 
	C4040.611084,608.711548 4038.381836,609.418640 4037.811768,610.807068 
	C4034.414307,619.080261 4031.405273,627.512878 4028.254395,635.887817 
	C4026.987793,639.254639 4025.692871,642.610779 4024.457764,645.848022 
	C4005.254883,645.848022 3986.768066,645.848022 3967.311523,645.848022 
	C3968.663086,642.047241 3969.648193,638.946533 3970.854004,635.934082 
	C4001.200684,560.115845 4031.584229,484.312531 4061.903809,408.483459 
	C4063.865479,403.576599 4065.370117,398.486603 4067.072510,393.476685 
	C4068.294189,389.881683 4070.585693,388.397186 4074.565674,388.448730 
	C4089.871582,388.647034 4105.181152,388.529114 4121.861816,388.529114 
	C4155.994141,473.836029 4190.197266,559.318665 4224.761230,645.703735 
	C4205.019043,645.703735 4186.290039,645.703735 4167.059082,645.703735 
	C4162.116699,633.175110 4157.157227,620.601990 4152.059082,607.677490 
	C4115.732910,607.677490 4079.799805,607.677490 4042.970215,607.683533 
M4082.121094,499.049377 
	C4075.003418,517.121399 4067.885498,535.193359 4060.477783,554.001709 
	C4085.003174,554.001709 4108.186523,554.001709 4132.458496,554.001709 
	C4120.690430,523.574402 4109.146973,493.729004 4096.980469,462.272247 
	C4091.747314,475.018524 4087.122070,486.283997 4082.121094,499.049377 
z"/>
</svg>